<?xml version="1.0" standalone="no"?>
<!DOCTYPE svg PUBLIC "-//W3C//DTD SVG 20010904//EN"
 "http://www.w3.org/TR/2001/REC-SVG-20010904/DTD/svg10.dtd">
<svg version="1.0" xmlns="http://www.w3.org/2000/svg"
 width="900.000000pt" height="1200.000000pt" viewBox="0 0 900.000000 1200.000000"
 preserveAspectRatio="xMidYMid meet">

<g transform="translate(0.000000,1200.000000) scale(0.100000,-0.100000)"
fill="#000000" stroke="none">
<path d="M3968 9702 c-2 -9 2 -27 10 -39 16 -25 13 -27 -65 -54 -32 -11 -74
-30 -93 -43 -19 -13 -74 -44 -122 -70 -49 -26 -88 -49 -88 -52 0 -2 12 -1 28
2 l27 7 -25 -27 -24 -27 37 16 c48 20 63 20 47 0 -17 -20 -5 -19 58 5 64 25
79 26 61 4 -12 -14 -9 -14 26 1 155 65 373 141 382 132 3 -3 -16 -20 -43 -36
-58 -37 -56 -38 43 -6 43 13 104 32 136 40 46 13 56 19 47 30 -9 10 4 26 59
72 38 32 68 59 66 61 -5 5 -235 -28 -275 -39 -19 -5 -62 -12 -95 -15 -33 -3
-82 -9 -108 -15 -27 -5 -53 -7 -57 -4 -18 11 3 35 37 41 31 6 33 8 17 17 -32
18 -82 18 -86 -1z"/>
<path d="M4588 9694 c-16 -8 -28 -21 -28 -29 0 -17 26 -20 35 -5 9 14 63 12
68 -2 3 -10 7 -10 20 1 27 21 20 28 -24 24 -36 -3 -40 -1 -29 12 17 20 -5 20
-42 -1z"/>
<path d="M5150 9695 c14 -10 31 -25 38 -34 11 -14 13 -13 18 7 8 28 19 28 60
-3 28 -21 39 -24 65 -17 29 7 30 9 16 23 -9 9 -43 19 -79 23 -35 4 -81 10
-103 13 l-40 5 25 -17z"/>
<path d="M4739 9668 c-9 -32 -6 -37 22 -31 20 4 29 1 29 -7 0 -9 -13 -11 -44
-8 -24 3 -56 0 -72 -8 l-29 -12 31 -1 c16 -1 39 -8 50 -16 26 -20 77 -19 104
3 20 16 21 23 13 48 l-11 29 -7 -27 c-4 -16 -12 -28 -17 -28 -5 0 -8 6 -5 13
8 21 -13 47 -38 47 -14 0 -25 -1 -26 -2z"/>
<path d="M5430 9660 c0 -5 19 -10 43 -9 32 0 37 2 22 9 -28 12 -65 12 -65 0z"/>
<path d="M5620 9614 c0 -14 -7 -16 -47 -9 -27 4 -52 6 -58 6 -5 -1 -125 -3
-265 -6 -143 -3 -273 -10 -295 -16 -22 -6 -85 -29 -140 -51 -128 -52 -154 -54
-240 -26 l-70 23 -115 -31 c-63 -17 -158 -47 -210 -67 -260 -98 -325 -111
-540 -110 -185 0 -228 8 -237 43 -5 19 -7 20 -29 5 -13 -8 -24 -13 -24 -11 0
3 -26 -10 -58 -28 -41 -23 -62 -30 -73 -23 -10 6 -35 -3 -87 -33 -39 -23 -72
-44 -72 -47 0 -3 12 -3 28 0 15 3 95 -1 177 -8 83 -8 227 -21 320 -30 94 -8
230 -23 303 -32 l132 -16 73 69 c39 39 87 80 105 93 18 12 30 26 28 30 -3 4
-37 14 -76 21 -39 7 -73 17 -76 22 -7 11 15 10 118 -6 83 -12 93 -11 175 10
49 13 104 24 123 24 l35 1 -25 14 c-23 14 -16 15 75 10 55 -3 192 -10 305 -15
113 -6 235 -13 271 -16 60 -6 68 -4 73 13 5 17 -2 52 -19 96 -7 17 -4 18 51
12 75 -9 88 -22 88 -85 0 -57 -29 -106 -60 -103 -11 1 -124 14 -252 28 l-233
28 -40 -39 -40 -39 184 -21 c101 -12 293 -38 427 -59 274 -41 258 -44 282 37
8 27 17 38 30 38 55 0 407 -104 395 -117 -3 -2 -61 8 -129 22 -69 14 -132 25
-141 25 -9 0 -22 -20 -33 -50 -28 -79 -42 -89 -106 -79 -29 4 -120 17 -203 29
-287 40 -730 111 -747 120 -12 7 -30 0 -69 -28 -61 -44 -205 -167 -215 -185
-4 -6 2 -4 14 6 16 15 30 18 59 13 27 -5 77 4 173 28 74 19 136 33 138 31 2
-2 -45 -28 -104 -59 -60 -30 -141 -76 -181 -103 -74 -50 -254 -196 -287 -232
l-19 -21 69 0 c138 0 596 21 894 40 883 58 1342 119 1620 215 82 28 150 68
150 89 0 7 -42 42 -92 78 -124 86 -117 84 -134 59 -8 -12 -22 -21 -31 -21 -16
0 -63 29 -101 64 l-23 21 33 11 33 11 -40 21 c-23 11 -58 24 -79 27 -20 4 -61
19 -89 33 -29 14 -97 44 -152 68 -94 40 -100 41 -107 23 -11 -29 -65 -57 -143
-74 l-70 -15 -125 34 c-227 62 -339 100 -329 111 3 2 63 -11 134 -30 208 -55
273 -64 326 -49 25 8 56 25 69 39 36 38 17 68 -57 90 -32 10 -71 17 -86 17
-16 0 -46 6 -69 14 -22 8 -57 14 -77 14 -20 0 -45 7 -55 15 -26 19 -36 19 -36
-1z m748 -263 c94 -48 195 -138 257 -230 66 -100 67 -99 -60 -76 -111 20 -207
48 -295 87 -164 72 -377 188 -347 188 3 0 63 -23 133 -51 169 -67 281 -106
379 -129 89 -22 115 -24 115 -11 0 18 -143 161 -206 206 -59 42 -73 55 -59 55
3 0 40 -18 83 -39z"/>
<path d="M4620 9357 l-65 -11 50 -7 c43 -7 53 -5 70 11 11 11 17 19 15 19 -3
-1 -34 -6 -70 -12z"/>
<path d="M3100 9353 c-8 -3 -28 -11 -45 -18 -16 -7 -39 -16 -49 -19 -10 -4
-17 -9 -14 -12 3 -2 17 0 31 5 21 8 26 7 30 -11 4 -12 10 -17 17 -13 9 6 9 9
0 15 -7 4 -9 13 -5 20 6 9 9 9 15 0 6 -9 15 -8 40 5 25 13 30 19 19 26 -16 10
-18 10 -39 2z"/>
<path d="M4478 9240 l4 -60 55 47 c61 52 62 50 -27 66 l-35 7 3 -60z"/>
<path d="M4250 9283 c-14 -3 -35 -16 -47 -30 -39 -44 -26 -59 20 -23 14 11 34
20 45 20 37 0 54 11 41 26 -12 14 -15 15 -59 7z"/>
<path d="M4393 9266 c-34 -16 -34 -31 1 -42 30 -9 31 -8 30 18 -1 35 -3 37
-31 24z"/>
<path d="M4285 9210 c-17 -19 -14 -57 4 -46 12 8 32 66 22 66 -4 0 -16 -9 -26
-20z"/>
<path d="M4335 9210 c-3 -6 1 -7 9 -4 11 4 16 0 16 -10 0 -13 3 -14 19 -4 11
7 17 16 15 20 -7 11 -52 10 -59 -2z"/>
<path d="M4430 9185 c-14 -7 -28 -11 -33 -8 -13 8 -36 -17 -30 -33 13 -34 100
2 92 38 -4 15 -7 15 -29 3z"/>
<path d="M3008 9183 c-16 -2 -28 -10 -28 -18 0 -14 -132 -125 -149 -125 -5 0
-16 -8 -23 -18 -7 -9 -24 -25 -38 -34 -31 -19 -56 -41 -143 -120 -46 -43 -66
-67 -62 -78 6 -20 -17 -42 -48 -45 -12 -1 -26 -3 -31 -4 -4 0 -5 -8 -2 -17 4
-10 -4 -28 -19 -46 -34 -40 -24 -47 18 -15 36 27 143 87 155 87 4 -1 -2 -6
-13 -13 -40 -24 -125 -89 -125 -96 0 -6 -92 -104 -121 -128 -8 -6 -32 -30 -53
-52 -36 -37 -56 -50 -56 -36 0 13 45 65 56 65 6 0 19 11 28 24 8 14 24 27 34
30 27 9 58 66 42 76 -11 7 -10 14 5 37 10 15 26 33 34 40 9 6 13 15 8 19 -4 4
-8 5 -10 3 -2 -2 -39 -47 -83 -99 -44 -52 -93 -113 -109 -135 -16 -22 -37 -49
-47 -59 -10 -11 -20 -28 -24 -38 -3 -10 -9 -18 -14 -18 -4 0 -15 -15 -24 -32
-10 -18 -30 -51 -46 -73 l-29 -40 35 -3 c32 -3 46 -23 25 -37 -5 -3 -17 -27
-25 -53 -9 -26 -27 -60 -41 -77 l-24 -30 26 51 c25 48 27 94 3 79 -15 -9 -89
-161 -140 -287 -24 -60 -48 -108 -52 -108 -8 0 14 63 66 189 14 36 26 67 26
70 -1 14 -28 -43 -71 -154 -27 -66 -54 -121 -61 -122 -167 -25 -196 -34 -168
-53 11 -7 15 -27 14 -77 l-1 -68 24 78 24 77 47 0 c66 -1 133 -15 144 -31 13
-20 5 -139 -12 -173 -8 -16 -24 -34 -35 -40 -11 -6 -35 -23 -53 -38 -18 -16
-39 -28 -47 -28 -19 0 -19 -12 0 -83 8 -32 15 -60 15 -63 0 -3 -15 -4 -32 -2
-30 3 -34 7 -46 53 -7 28 -15 76 -19 108 -3 31 -10 57 -14 57 -4 0 -22 -45
-39 -101 -28 -91 -49 -123 -67 -105 -4 3 1 30 10 60 24 76 21 79 -16 11 -19
-35 -45 -68 -64 -80 -59 -36 -40 -49 83 -56 60 -4 168 -19 240 -34 71 -15 191
-40 266 -55 76 -16 143 -32 149 -36 6 -4 31 -8 55 -10 40 -2 163 -30 172 -39
2 -2 -15 -45 -38 -95 -22 -51 -74 -192 -115 -313 -97 -293 -133 -390 -149
-402 -7 -5 -13 -17 -14 -25 -1 -23 -6 -42 -19 -75 -6 -16 -14 -41 -17 -55 -8
-40 -59 -110 -78 -110 -13 0 -18 -8 -18 -30 0 -16 5 -30 12 -30 6 0 2 -11 -11
-23 -13 -15 -19 -30 -15 -41 4 -10 0 -22 -9 -29 -17 -13 -28 -66 -30 -144 l-2
-52 -45 5 c-56 6 -211 32 -267 45 -23 5 -54 9 -70 9 -23 -1 -25 -2 -12 -10 10
-6 34 -12 55 -14 22 -2 50 -8 64 -13 14 -6 57 -16 95 -22 124 -21 175 -34 175
-46 0 -17 -95 -3 -405 59 -28 6 -27 5 5 -8 43 -18 33 -20 -25 -5 -25 6 -42 16
-39 21 4 6 -1 8 -14 4 -21 -7 -80 4 -165 31 -44 14 -50 14 -67 -2 -10 -9 -23
-36 -29 -59 -6 -24 -17 -49 -26 -56 -8 -7 -15 -18 -15 -24 0 -12 60 -39 69
-31 2 3 -1 5 -7 5 -17 0 -15 27 3 34 11 4 15 21 15 64 0 32 2 61 5 64 3 3 22
0 43 -7 l37 -13 -1 -69 c-1 -37 1 -48 3 -23 5 63 12 90 23 90 6 0 10 -8 10
-17 0 -14 2 -15 9 -4 5 8 16 11 30 6 15 -5 21 -15 22 -38 0 -28 1 -29 9 -11
11 28 24 36 44 28 14 -5 16 -19 13 -81 -5 -80 -14 -99 -45 -89 -14 5 -18 13
-15 34 3 26 3 26 -8 5 -7 -13 -16 -23 -21 -23 -5 0 -13 10 -18 23 -7 17 -9 18
-9 5 -1 -22 -21 -24 -21 -3 0 12 -4 13 -19 4 -26 -17 -51 -4 -51 26 l0 25 -21
-21 c-11 -11 -19 -22 -17 -24 15 -14 265 -82 373 -100 39 -7 39 -6 22 12 -9
11 -17 25 -17 31 0 16 -10 15 -32 -4 -14 -14 -26 -15 -60 -7 -30 6 -42 14 -39
24 3 13 10 93 11 132 0 20 23 22 68 6 36 -12 45 -30 33 -62 -5 -13 -6 -29 -2
-36 5 -8 10 -2 14 18 4 17 18 38 32 47 48 32 105 -14 105 -86 0 -43 -10 -61
-44 -76 -17 -7 -24 -13 -15 -14 9 0 22 -7 29 -15 7 -8 22 -15 34 -15 11 0 28
-5 36 -10 11 -8 7 -9 -15 -5 -16 3 -3 -5 30 -18 58 -22 61 -22 85 -5 24 17 29
17 120 -1 l95 -19 -97 5 -97 6 -31 -33 c-16 -17 -30 -37 -30 -44 0 -6 -11 -45
-24 -86 -14 -41 -23 -76 -21 -78 2 -2 12 1 22 6 14 8 49 3 130 -17 72 -18 117
-24 128 -19 14 8 238 -16 257 -28 20 -13 28 9 13 33 -9 14 -14 27 -11 31 4 3
50 1 104 -5 108 -12 536 -12 548 0 18 18 -21 32 -89 33 -114 2 -599 23 -601
26 -19 26 -36 54 -36 58 0 4 28 3 63 -1 89 -11 327 -27 501 -34 82 -4 155 -9
163 -12 8 -3 18 -1 22 6 6 9 11 8 21 -4 8 -10 9 -15 1 -15 -6 0 -11 -6 -11
-14 0 -8 -5 -16 -11 -18 -8 -3 -3 -17 12 -41 20 -31 29 -37 54 -35 23 2 30 -1
29 -14 -1 -10 4 -18 11 -18 7 0 15 -12 18 -28 3 -15 20 -50 37 -77 17 -28 75
-120 128 -205 l98 -155 65 2 c35 1 125 7 199 13 74 6 263 20 420 31 454 31
823 71 1298 139 112 17 210 30 218 30 10 0 12 -9 7 -32 -3 -18 -7 -34 -8 -36
-4 -5 -507 -80 -675 -101 -349 -43 -757 -80 -1135 -101 -104 -6 -223 -16 -263
-22 l-73 -11 19 -21 c11 -12 77 -111 147 -221 70 -110 131 -204 135 -208 4 -4
47 41 96 100 133 161 164 193 214 218 54 27 76 31 330 50 372 29 721 69 1095
126 110 17 227 35 260 39 376 56 871 152 944 185 33 15 48 18 36 9 -51 -41
-125 -62 -630 -179 -152 -35 -591 -126 -788 -164 -59 -12 -120 -27 -135 -35
-15 -8 -45 -39 -67 -69 -30 -41 -48 -57 -70 -60 -16 -3 -32 -3 -34 -1 -4 4 96
134 118 152 20 17 19 17 -210 -13 -107 -13 -300 -33 -429 -45 -129 -11 -262
-23 -295 -26 -103 -9 -131 -32 -332 -276 l-62 -75 57 -84 c32 -46 92 -130 135
-186 93 -123 105 -128 236 -94 245 63 357 95 363 105 3 6 30 43 60 82 39 53
60 73 81 76 15 3 27 0 27 -4 0 -14 -88 -126 -108 -137 -27 -16 -6 -13 82 13
44 14 169 50 276 80 107 30 296 85 420 121 124 37 241 71 260 77 499 146 619
189 781 280 80 46 210 116 290 157 l145 74 39 70 c50 88 111 153 150 162 17 4
54 18 83 32 40 20 76 27 155 33 119 8 149 20 292 109 115 72 159 111 186 163
26 51 101 305 96 326 -4 17 -7 10 -22 -60 -7 -35 -24 -37 -17 -3 3 20 1 24
-12 19 -9 -3 -16 -2 -16 4 0 21 13 42 26 42 16 0 34 31 34 59 0 14 5 19 14 15
11 -4 18 6 26 36 34 127 74 420 85 623 6 96 11 129 22 136 13 7 14 44 11 245
-2 165 -7 239 -15 244 -13 8 -48 111 -56 167 l-6 40 18 -38 c17 -36 41 -68 41
-55 0 3 -9 25 -19 49 -25 56 -57 215 -70 346 -5 56 -17 117 -26 137 -9 19 -20
58 -25 88 -10 64 -62 202 -87 230 -17 19 -17 19 10 13 15 -4 27 -4 27 1 0 4
-36 81 -80 170 -104 209 -133 238 -91 92 12 -40 16 -70 10 -74 -10 -6 -13 0
-30 76 -7 30 -23 86 -36 124 -12 38 -21 71 -19 74 3 2 26 -29 51 -69 86 -135
107 -165 100 -141 -5 17 -1 30 15 47 26 27 25 30 -59 150 -71 102 -147 182
-295 313 -104 93 -122 114 -148 171 -32 71 -31 96 4 85 l21 -6 -21 27 c-12 15
-22 32 -22 38 0 29 163 -44 296 -134 41 -27 74 -46 74 -41 0 15 -97 94 -200
163 -101 67 -287 165 -332 174 -14 3 -52 26 -83 52 -57 46 -58 46 -74 25 -53
-69 -342 -149 -746 -206 -444 -62 -1501 -136 -1956 -136 l-147 0 -59 -67
c-153 -177 -269 -347 -373 -552 l-22 -44 519 6 c768 8 1372 52 2128 153 546
73 827 132 1024 215 89 38 94 39 112 23 27 -24 24 -30 -27 -60 -98 -58 -413
-143 -709 -193 -796 -134 -1985 -227 -2814 -220 l-263 3 -14 -25 c-7 -13 -13
-28 -14 -34 0 -13 703 -10 1080 5 837 32 1871 151 2395 275 144 34 282 79 363
121 50 24 70 30 84 23 48 -26 1 -75 -119 -124 -57 -23 -67 -24 -108 -13 l-46
12 -32 -36 c-30 -34 -40 -38 -172 -67 -397 -86 -765 -140 -1375 -200 -577 -57
-868 -72 -1526 -78 l-581 -5 -17 -34 -16 -34 403 0 c619 0 1130 25 1777 86
608 57 1216 145 1419 204 19 5 36 8 39 6 2 -2 -12 -53 -31 -113 -61 -188 -76
-414 -38 -573 24 -101 41 -238 41 -336 0 -53 -8 -96 -35 -178 -19 -60 -35
-114 -35 -121 0 -8 -16 -35 -36 -60 -43 -58 -40 -82 8 -62 38 15 74 63 87 116
5 20 14 54 20 76 6 22 18 49 27 60 15 19 15 19 9 -5 -4 -14 -15 -63 -24 -110
-19 -96 -26 -110 -76 -169 -40 -49 -43 -61 -15 -61 49 0 103 46 139 118 12 23
24 42 26 42 3 0 18 -14 34 -32 27 -30 29 -31 70 -21 35 9 49 8 92 -10 61 -26
80 -18 93 41 6 31 4 54 -9 94 -11 35 -13 54 -6 56 22 7 4 75 -33 121 -6 8 -21
41 -33 73 l-21 60 41 -6 c90 -13 92 -13 91 14 -1 14 -13 57 -27 95 -27 75 -42
145 -29 130 4 -6 19 -41 32 -80 32 -95 46 -122 70 -130 26 -8 25 -23 -4 -46
-18 -14 -25 -33 -31 -86 -11 -86 -11 -183 -1 -248 7 -43 4 -64 -24 -145 -68
-201 -189 -383 -317 -480 -222 -168 -454 -192 -721 -76 -42 19 -97 39 -122 46
-64 16 -123 57 -115 78 6 17 -3 9 -115 -94 -155 -144 -305 -269 -363 -302 -72
-41 -174 -24 -257 43 -32 26 -32 25 6 -14 28 -29 59 -49 94 -60 l53 -18 -87
-52 c-106 -64 -299 -157 -461 -221 -164 -65 -174 -67 -305 -74 -63 -3 -201
-12 -306 -21 -388 -30 -710 -40 -1299 -40 -554 0 -789 8 -964 32 -31 4 -42 2
-37 -6 5 -7 -1 -11 -14 -11 -12 0 -18 4 -15 10 11 17 -74 158 -140 233 -8 9
-12 17 -8 17 14 0 30 -15 41 -36 13 -25 21 -27 250 -54 213 -25 200 -25 204 3
2 12 8 22 13 22 63 -2 196 -18 200 -25 10 -16 35 1 50 34 8 17 50 135 94 261
43 127 134 388 201 580 68 193 137 395 155 450 21 65 37 100 46 99 25 -3 432
-123 486 -143 l51 -20 51 147 c27 81 73 212 101 291 28 79 49 145 48 146 -14
10 -721 215 -951 275 -48 13 -85 25 -83 27 2 3 95 -18 207 -46 111 -28 203
-50 204 -49 1 2 12 35 25 73 47 145 155 405 231 555 128 254 262 442 452 632
99 99 263 236 343 288 l41 26 -78 -1 c-59 0 -82 -5 -97 -18 -10 -9 -27 -17
-38 -17 -27 0 -145 44 -196 73 -35 20 -76 29 -213 46 -220 27 -820 83 -850 79
-5 0 -22 -3 -37 -5z m158 -259 c42 -20 66 -63 62 -110 -3 -34 -6 -37 -68 -59
-36 -12 -81 -30 -99 -39 -36 -19 -171 -145 -171 -160 0 -6 -12 -23 -27 -39
l-28 -29 27 13 c23 10 33 9 66 -8 37 -18 41 -18 61 -2 14 12 21 29 21 53 0 40
4 43 26 21 22 -22 28 -19 48 21 9 20 19 34 21 32 9 -9 -19 -73 -37 -87 -11 -7
-35 -29 -54 -48 -56 -56 -176 -107 -259 -111 -60 -3 -75 0 -105 20 -39 27 -69
92 -55 124 4 10 7 28 6 39 -2 21 76 111 87 101 3 -3 -3 -14 -12 -25 -13 -14
-14 -20 -4 -23 8 -3 2 -17 -20 -44 -18 -21 -32 -41 -32 -45 0 -4 21 -3 46 2
36 7 49 5 61 -6 21 -21 23 -19 17 14 -4 16 -1 32 5 35 7 5 11 -2 12 -16 1 -13
7 0 14 27 6 28 22 70 35 95 22 42 31 117 19 159 -5 18 87 76 151 96 62 19 145
18 186 -1z m3637 -158 c57 -23 217 -229 217 -278 0 -51 -46 -63 -100 -25 -46
30 -199 244 -199 279 -1 39 28 47 82 24z m-4043 -27 c-6 -10 -15 -19 -21 -19
-6 0 -8 3 -6 8 2 4 7 15 10 25 4 10 11 15 17 12 7 -4 7 -13 0 -26z m3830 4
c-19 -3 -45 -14 -57 -25 -26 -25 -31 -14 -6 14 11 12 29 18 57 16 41 -1 41 -1
6 -5z m-3380 -12 c0 -5 -16 -18 -35 -30 -19 -11 -35 -16 -35 -11 0 6 15 19 33
30 37 23 37 23 37 11z m3427 2 c-3 -5 12 -19 32 -31 49 -31 171 -221 171 -267
0 -39 -16 -55 -52 -55 -63 0 -82 20 -188 190 -77 123 -77 146 -4 160 22 4 40
8 42 9 2 0 1 -2 -1 -6z m423 -51 c0 -14 -78 -45 -95 -38 -26 10 -12 30 26 37
52 10 69 10 69 1z m-4280 -36 c0 -14 -4 -28 -10 -31 -5 -3 -10 1 -10 9 0 9 -5
16 -11 16 -8 0 -8 5 1 15 18 22 30 18 30 -9z m240 -31 c0 -9 -9 -15 -24 -15
-14 0 -28 -4 -31 -10 -3 -5 -12 -10 -18 -10 -16 1 44 50 61 50 6 0 12 -7 12
-15z m3509 -21 c41 -34 41 -64 1 -64 -16 0 -30 5 -30 10 0 6 -7 10 -16 10 -11
0 -14 -6 -8 -22 15 -50 60 -119 81 -124 19 -5 39 -31 30 -40 -2 -2 -33 -5 -68
-6 l-64 -3 2 29 c3 37 -66 157 -98 171 -39 17 -33 32 18 40 30 4 49 3 51 -3 2
-6 12 -2 23 9 25 25 41 24 78 -7z m-251 -30 c40 -16 92 -61 92 -79 0 -6 -25
-27 -55 -47 -40 -26 -51 -39 -42 -46 26 -20 57 -20 82 0 27 21 65 17 65 -8 0
-8 -11 -26 -25 -39 -19 -20 -34 -25 -76 -25 -68 0 -111 27 -149 94 -45 77 -40
128 14 152 40 17 49 17 94 -2z m-3577 -17 c-13 -13 -26 -3 -16 12 3 6 11 8 17
5 6 -4 6 -10 -1 -17z m2825 -14 c8 -21 31 -84 51 -141 28 -79 41 -106 58 -112
19 -7 41 -38 33 -46 -3 -2 -162 -22 -164 -20 -1 0 -5 11 -8 24 -6 16 -3 22 8
22 23 0 20 16 -19 125 -43 118 -52 135 -70 135 -8 0 -19 9 -25 19 -9 17 -6 20
22 24 91 11 97 9 114 -30z m-161 -13 c43 -26 71 -93 56 -132 -11 -29 -57 -58
-90 -58 -42 0 -50 -9 -38 -46 7 -23 18 -36 34 -40 16 -4 23 -13 23 -30 0 -22
-4 -24 -44 -24 -24 0 -64 -3 -89 -6 -41 -6 -46 -4 -52 16 -5 16 -3 26 9 32 22
12 21 23 -14 140 -29 98 -40 118 -67 118 -23 0 -14 39 10 45 88 20 217 13 262
-15z m752 -133 c5 -191 -1 -207 -72 -207 -35 0 -47 5 -64 26 -29 37 -26 50 11
58 23 5 34 2 41 -9 10 -19 23 -19 31 1 8 21 -158 210 -196 223 -36 13 -36 38
0 45 92 17 120 17 126 0 4 -10 2 -22 -3 -27 -6 -6 4 -27 27 -58 20 -27 38 -47
40 -44 2 2 1 27 -3 54 -4 33 -12 51 -21 51 -7 0 -18 9 -24 19 -13 25 0 31 59
28 l43 -2 5 -158z m-3166 130 c-13 -13 -26 -3 -16 12 3 6 11 8 17 5 6 -4 6
-10 -1 -17z m2099 -16 c0 -20 -36 -23 -340 -36 -69 -3 -146 -8 -172 -11 -30
-3 -48 -1 -48 6 0 5 8 10 18 11 9 0 116 11 237 23 287 31 305 31 305 7z
m-2536 -6 c-4 -8 -8 -15 -10 -15 -2 0 -4 7 -4 15 0 8 4 15 10 15 5 0 7 -7 4
-15z m3296 0 c19 -10 39 -36 59 -79 17 -35 31 -68 31 -74 0 -6 11 -19 24 -29
43 -32 37 -47 -21 -53 -30 -3 -54 -1 -56 4 -2 5 -14 2 -27 -7 -37 -26 -106
-22 -135 7 -54 55 -40 102 38 126 23 7 46 17 51 22 13 11 -23 48 -46 48 -14 0
-18 -6 -16 -27 3 -25 0 -28 -33 -31 -43 -4 -64 16 -55 53 12 49 123 72 186 40z
m-712 -51 c3 -19 -5 -20 -250 -33 -139 -6 -275 -15 -303 -18 -34 -4 -47 -2
-40 5 6 6 84 18 175 27 91 10 215 23 275 30 134 15 139 15 143 -11z m1802 1
c7 -8 9 -22 6 -32 -6 -15 -9 -15 -28 4 -11 12 -17 26 -14 32 10 15 21 14 36
-4z m123 -15 c-15 -12 -31 -15 -50 -11 -26 6 -25 6 10 9 22 2 41 9 44 18 3 8
8 12 12 9 3 -4 -4 -15 -16 -25z m-1905 -48 c3 -21 0 -22 -65 -22 -37 0 -162
-7 -278 -15 -115 -8 -221 -14 -235 -14 l-25 1 25 8 c22 7 129 21 470 59 97 11
104 10 108 -17z m16 -48 c3 -9 6 -19 6 -23 0 -4 -105 -13 -232 -20 -128 -7
-264 -16 -303 -21 -69 -7 -84 -6 -72 6 6 6 63 13 407 54 198 23 187 23 194 4z
m13 -60 c3 -8 2 -19 -3 -24 -5 -5 -106 -14 -224 -20 -118 -6 -252 -15 -297
-19 -46 -4 -83 -3 -83 1 0 10 30 14 295 43 226 24 282 31 298 34 4 0 10 -6 14
-15z m-20 -69 c3 -9 3 -19 -1 -22 -4 -4 -111 -12 -239 -19 -128 -7 -256 -13
-284 -15 -70 -4 -78 8 -11 16 109 14 474 53 501 54 16 1 30 -5 34 -14z m2505
-117 c15 -46 32 -103 38 -128 6 -25 13 -53 16 -62 3 -11 0 -18 -8 -18 -8 0
-22 36 -37 100 -13 56 -28 103 -32 105 -4 3 -30 -7 -58 -21 -51 -27 -79 -27
-114 -2 -16 12 -9 18 70 60 48 25 90 47 93 47 3 1 18 -36 32 -81z m-5589 -85
c-3 -10 -13 -27 -21 -38 l-14 -20 7 20 c4 11 10 28 12 38 3 9 9 17 14 17 5 0
6 -8 2 -17z m-46 -105 c-3 -8 -6 -5 -6 6 -1 11 2 17 5 13 3 -3 4 -12 1 -19z
m60 -80 c-3 -7 -5 -2 -5 12 0 14 2 19 5 13 2 -7 2 -19 0 -25z m-61 -23 c-1
-10 -9 -21 -16 -23 -9 -3 -10 0 -2 13 5 10 7 27 5 39 -4 17 -3 18 6 5 5 -8 9
-24 7 -34z m5408 -31 c3 -9 6 -37 6 -63 0 -27 5 -72 10 -101 14 -74 6 -73 -19
2 -34 105 -40 178 -12 178 5 0 12 -7 15 -16z m-5202 -139 c5 -16 10 -98 12
-181 4 -137 8 -186 22 -253 5 -22 3 -23 -33 -16 -44 8 -53 18 -53 62 0 35 5
32 -110 51 -44 7 -45 8 -48 50 -3 40 -2 42 25 42 15 -1 47 -5 71 -9 40 -8 42
-7 42 16 0 13 5 33 10 43 6 12 7 38 3 65 l-8 46 -38 -51 c-21 -28 -49 -55 -61
-60 -13 -5 -54 -52 -90 -104 -60 -86 -70 -96 -98 -96 -38 0 -36 5 43 121 34
49 73 95 87 101 14 7 49 46 78 86 28 40 61 84 73 98 29 34 62 29 73 -11z m452
-55 c71 -16 132 -32 135 -35 3 -3 -11 -21 -30 -40 l-34 -34 -112 25 c-69 16
-123 24 -140 19 -15 -3 -43 -23 -62 -44 -85 -91 -96 -122 -65 -187 18 -38 36
-45 212 -85 56 -12 102 -25 102 -29 0 -3 -15 -21 -33 -39 l-34 -32 -129 31
c-135 32 -161 46 -192 105 -20 39 -20 154 0 169 7 6 26 32 41 58 40 69 72 104
120 127 54 27 67 27 221 -9z m234 -55 c12 -3 22 -12 22 -18 0 -24 -64 -203
-81 -227 -17 -25 -54 -129 -48 -134 2 -1 85 -24 184 -50 99 -26 182 -49 184
-52 3 -3 -11 -20 -30 -40 l-35 -35 -194 53 c-129 35 -197 59 -204 70 -12 20
33 175 64 219 10 14 32 72 50 128 25 83 34 101 48 97 9 -2 27 -7 40 -11z m746
-204 c92 -27 170 -52 174 -55 3 -4 -11 -22 -33 -40 -32 -27 -44 -32 -65 -26
-258 77 -272 80 -311 70 -40 -11 -99 -54 -88 -64 3 -3 95 -32 204 -64 110 -32
200 -63 202 -68 2 -5 -17 -19 -40 -32 l-44 -23 -181 54 -182 54 0 -24 c0 -33
24 -77 53 -96 13 -8 99 -38 193 -67 93 -28 171 -53 173 -55 5 -6 -52 -54 -72
-60 -18 -7 -280 66 -328 91 -66 33 -119 127 -119 211 0 62 79 176 145 210 84
44 121 42 319 -16z m3641 -93 c13 -29 26 -64 29 -78 l7 -25 -17 23 c-36 48
-51 21 -57 -98 l-2 -55 -14 45 c-13 42 -9 209 5 232 12 19 26 5 49 -44z m528
-305 c-2 -43 -6 -84 -9 -90 -7 -23 -24 -13 -24 13 0 42 23 154 31 154 4 0 5
-35 2 -77z m-440 -165 c17 -36 14 -48 -12 -48 -18 0 -31 26 -31 63 0 28 26 19
43 -15z m415 -124 c-10 -10 -28 6 -28 24 0 15 1 15 17 -1 9 -9 14 -19 11 -23z
m-92 -108 c-2 -11 -10 -50 -16 -86 -17 -96 -66 -298 -106 -442 -28 -97 -41
-127 -55 -131 -24 -6 -24 -7 6 94 35 114 80 296 110 437 14 64 27 127 30 139
4 15 10 20 21 16 10 -4 14 -13 10 -27z m51 -129 c-15 -86 -60 -276 -108 -455
-11 -39 -32 -63 -45 -50 -2 3 13 68 35 145 22 77 54 212 71 299 40 199 38 190
52 176 10 -10 8 -36 -5 -115z m299 -273 c-3 -9 -6 -25 -7 -37 -1 -18 -2 -16
-9 7 -10 31 -6 46 12 46 5 0 7 -7 4 -16z m-12 -192 c-9 -118 -24 -166 -18 -57
5 95 11 135 19 135 3 0 3 -35 -1 -78z m-500 -309 c-19 -54 -37 -100 -40 -102
-11 -11 -2 91 11 129 18 50 32 70 51 70 9 0 3 -27 -22 -97z m-5877 -39 c-3 -3
-12 -4 -19 -1 -8 3 -5 6 6 6 11 1 17 -2 13 -5z m73 -14 c20 -6 21 -8 5 -8 -11
0 -31 4 -45 8 -20 6 -21 8 -5 8 11 0 31 -4 45 -8z m103 -27 c-7 -2 -19 -2 -25
0 -7 3 -2 5 12 5 14 0 19 -2 13 -5z m50 -10 c-7 -2 -19 -2 -25 0 -7 3 -2 5 12
5 14 0 19 -2 13 -5z m5461 -179 c-15 -32 -41 -73 -58 -93 -53 -60 -91 -113
-124 -171 -18 -30 -32 -48 -32 -39 0 40 36 112 100 197 42 57 82 125 102 174
l33 81 3 -46 c2 -34 -4 -61 -24 -103z m-4914 126 l55 -7 -45 -1 c-25 0 -65 3
-90 7 -41 8 -42 9 -10 9 19 0 60 -3 90 -8z m138 -17 c-10 -2 -28 -2 -40 0 -13
2 -5 4 17 4 22 1 32 -1 23 -4z m-664 -42 c3 -5 -1 -14 -9 -21 -17 -14 -20 -30
-5 -30 6 0 10 7 10 15 0 12 28 35 44 35 2 0 12 -8 22 -17 10 -11 19 -13 21 -7
2 7 18 7 53 0 54 -11 60 -22 38 -71 -16 -35 -42 -34 -34 3 5 25 5 26 -6 5 -11
-22 -38 -32 -38 -14 0 5 -10 7 -22 3 -18 -4 -20 -2 -14 14 6 15 5 17 -5 7 -14
-14 -51 -17 -63 -6 -4 4 -17 8 -29 8 -28 0 -34 28 -13 60 17 25 40 33 50 16z
m-74 -57 c0 -8 -7 -14 -15 -14 -15 0 -21 21 -9 33 10 9 24 -2 24 -19z m237
-100 c-3 -3 -12 -4 -19 -1 -8 3 -5 6 6 6 11 1 17 -2 13 -5z m98 -4 c-3 -5 -21
-9 -38 -9 l-32 2 35 7 c19 4 36 8 38 9 2 0 0 -3 -3 -9z m193 -27 c-10 -2 -28
-2 -40 0 -13 2 -5 4 17 4 22 1 32 -1 23 -4z m-438 -68 c-11 -33 -19 -64 -17
-70 6 -15 46 55 53 93 7 36 19 41 34 13 24 -47 -7 -104 -63 -116 -17 -4 -35
-13 -39 -19 -14 -21 -8 17 12 83 21 67 29 85 36 78 2 -2 -5 -30 -16 -62z m567
59 c-3 -3 -12 -4 -19 -1 -8 3 -5 6 6 6 11 1 17 -2 13 -5z m4814 -60 c-17 -32
-31 -67 -31 -78 0 -12 -4 -26 -8 -32 -8 -13 -73 -36 -80 -29 -7 7 59 112 102
162 21 24 41 42 43 39 3 -3 -9 -31 -26 -62z m-3418 49 c-7 -2 -19 -2 -25 0 -7
3 -2 5 12 5 14 0 19 -2 13 -5z m75 0 c-10 -2 -26 -2 -35 0 -10 3 -2 5 17 5 19
0 27 -2 18 -5z m3752 -13 c0 -10 -9 -24 -19 -30 -35 -18 -42 -12 -26 20 17 34
45 40 45 10z m-4707 3 c-7 -2 -21 -2 -30 0 -10 3 -4 5 12 5 17 0 24 -2 18 -5z
m735 0 c-10 -2 -28 -2 -40 0 -13 2 -5 4 17 4 22 1 32 -1 23 -4z m-1638 -93 c0
-6 10 -8 24 -4 38 9 50 -3 31 -34 l-16 -27 24 27 c23 24 53 30 87 18 6 -3 22
-6 34 -8 15 -3 -36 -52 -52 -52 -12 0 -11 4 4 22 20 23 3 17 -29 -10 -22 -19
-34 -8 -16 15 13 17 13 17 -6 1 -12 -9 -29 -17 -40 -16 -11 0 -28 -3 -37 -7
-23 -9 -35 19 -18 40 7 9 10 18 6 22 -9 10 -31 -15 -31 -35 0 -23 -29 -22 -33
1 -2 10 4 27 14 38 18 20 54 26 54 9z m-89 -43 c-13 -13 -26 -3 -16 12 3 6 11
8 17 5 6 -4 6 -10 -1 -17z m4778 -173 c6 -15 10 -28 8 -30 -6 -7 -131 -33
-135 -29 -3 3 1 11 8 20 10 12 10 18 1 29 -10 12 -5 16 31 24 67 15 74 14 87
-14z m-264 -34 c-7 -11 -73 -25 -82 -17 -3 3 10 10 28 16 45 12 61 13 54 1z
m-256 -76 c14 -32 13 -33 -33 -44 -33 -7 -38 -5 -57 21 -15 22 -17 30 -7 33 7
3 20 7 28 9 36 12 57 6 69 -19z m-284 -54 c8 -16 15 -31 15 -33 0 -2 -24 -7
-53 -10 -29 -4 -67 -10 -85 -13 -30 -6 -32 -5 -32 24 0 36 5 40 62 51 70 14
77 13 93 -19z m-735 -608 c0 -4 -14 -43 -31 -87 -28 -74 -61 -125 -81 -125
-14 0 -9 22 10 36 16 12 16 16 -4 71 -12 32 -25 66 -29 77 -6 14 -4 17 11 14
12 -2 23 -20 33 -51 16 -52 26 -59 35 -24 10 43 36 97 46 97 6 0 10 -3 10 -8z
m-294 -48 c-3 -26 -6 -71 -6 -100 0 -42 -3 -54 -15 -54 -12 0 -14 7 -11 28 2
15 5 60 5 100 1 60 4 72 17 72 14 0 16 -8 10 -46z m132 14 c7 -7 12 -40 12
-76 0 -59 -2 -64 -20 -59 -10 3 -20 1 -22 -5 -6 -18 -69 -14 -82 5 -16 25 1
48 58 75 46 23 53 42 15 42 -11 0 -29 -5 -40 -10 -14 -8 -19 -7 -19 3 0 29 75
48 98 25z m-515 -15 c9 -9 -13 -34 -24 -27 -14 8 -11 34 4 34 8 0 17 -3 20 -7z
m315 -26 c13 -10 16 -74 6 -102 -9 -23 -62 -48 -90 -41 -21 6 -24 3 -24 -24 0
-21 -5 -30 -16 -30 -15 0 -16 9 -11 68 4 37 7 82 7 101 0 25 4 32 15 28 8 -4
26 0 41 8 26 13 47 11 72 -8z m-640 -7 c64 -39 88 -113 58 -183 -16 -39 -61
-82 -99 -96 -39 -15 -109 -14 -130 2 -16 11 -9 18 63 65 76 49 81 54 78 83 -3
30 -8 33 -83 61 -44 16 -82 31 -84 34 -5 5 33 34 59 46 32 14 105 8 138 -12z
m470 -12 c7 -7 12 -39 12 -76 0 -54 -2 -63 -17 -61 -10 1 -31 -3 -47 -10 -33
-13 -61 -7 -70 15 -10 26 13 54 60 74 24 11 44 24 44 30 0 13 -46 13 -71 0
-14 -8 -19 -7 -19 3 0 29 84 49 108 25z m-188 -15 c0 -5 -13 -42 -29 -83 -38
-97 -53 -98 -92 -6 -16 38 -27 71 -25 74 13 13 33 -11 50 -59 16 -45 20 -51
27 -34 34 84 49 115 58 115 6 0 11 -3 11 -7z m46 -30 c-3 -21 -6 -55 -6 -75 0
-24 -5 -38 -12 -38 -10 0 -12 20 -10 75 3 60 7 75 19 75 12 0 14 -8 9 -37z
m-489 -54 c35 -12 63 -24 63 -28 0 -8 -117 -81 -129 -81 -14 0 -21 27 -21 81
0 31 4 49 12 49 6 0 40 -10 75 -21z"/>
<path d="M6785 8720 c-4 -6 5 -28 20 -48 15 -20 47 -67 72 -104 43 -63 72 -83
87 -59 7 10 -35 74 -101 155 -51 63 -67 74 -78 56z"/>
<path d="M6614 8666 c-6 -15 97 -194 119 -208 21 -13 44 -9 44 10 0 9 -27 58
-59 107 -59 89 -93 119 -104 91z"/>
<path d="M6778 8393 c7 -3 16 -2 19 1 4 3 -2 6 -13 5 -11 0 -14 -3 -6 -6z"/>
<path d="M6210 8516 c0 -23 19 -66 29 -66 5 0 19 9 32 20 l24 20 -24 20 c-27
23 -61 26 -61 6z"/>
<path d="M5233 8476 c3 -8 11 -32 18 -55 8 -27 18 -41 29 -41 42 0 50 58 14
94 -20 20 -68 22 -61 2z"/>
<path d="M5774 8359 c-12 -4 -25 -13 -29 -19 -10 -16 14 -40 41 -40 18 0 24 5
24 23 0 34 -12 46 -36 36z"/>
<path d="M2105 5060 c-3 -5 -1 -10 4 -10 6 0 11 5 11 10 0 6 -2 10 -4 10 -3 0
-8 -4 -11 -10z"/>
<path d="M5018 3994 c-35 -18 -37 -44 -4 -44 25 0 60 36 50 52 -7 11 -14 10
-46 -8z"/>
<path d="M4798 4020 c-22 -13 -33 -67 -18 -85 20 -24 58 -18 76 11 32 49 -10
102 -58 74z"/>
<path d="M4638 3934 c-31 -16 -36 -32 -12 -41 24 -9 64 14 64 37 0 24 -15 25
-52 4z"/>
<path d="M4315 9162 l-30 -17 28 -3 c33 -4 40 0 35 21 -3 13 -7 13 -33 -1z"/>
<path d="M4220 9140 l-45 -7 42 -1 c23 -1 45 3 48 8 3 6 5 9 3 8 -2 0 -23 -4
-48 -8z"/>
<path d="M1890 7881 c0 -10 -32 -89 -46 -113 -3 -4 0 -9 5 -12 10 -7 56 122
47 131 -3 4 -6 1 -6 -6z"/>
<path d="M5220 7670 c-470 -34 -748 -44 -1227 -44 -266 -1 -483 -2 -483 -2 0
-1 -15 -42 -33 -91 l-34 -90 259 -72 c271 -77 640 -189 959 -291 231 -74 350
-105 466 -121 100 -13 330 -7 410 11 47 10 51 13 44 33 -5 12 -17 67 -27 122
-20 107 -26 396 -11 508 l7 57 -42 -1 c-24 -1 -153 -10 -288 -19z"/>
<path d="M1747 7549 c-10 -34 -17 -63 -15 -64 2 -2 26 -6 55 -10 47 -6 54 -4
78 19 18 18 25 36 25 64 0 44 -12 52 -85 52 l-40 0 -18 -61z"/>
<path d="M1625 7581 c-3 -6 -12 -28 -19 -49 -14 -38 -13 -40 7 -46 29 -7 36 1
43 57 6 39 4 47 -9 47 -9 0 -18 -4 -22 -9z"/>
<path d="M1572 7434 c-12 -8 -22 -21 -22 -27 0 -7 -7 -24 -14 -39 -13 -24 -13
-28 -1 -28 14 0 71 97 63 106 -3 2 -14 -3 -26 -12z"/>
<path d="M6295 7384 c-66 -9 -112 -28 -148 -60 -20 -19 -35 -34 -32 -34 3 0
-11 -24 -29 -53 -51 -79 -71 -155 -70 -267 2 -133 39 -233 129 -339 19 -24 33
-47 29 -52 -3 -5 2 -6 10 -3 8 3 28 -3 43 -13 108 -75 274 -73 385 3 79 55
138 177 153 314 26 242 -163 495 -377 505 -35 2 -76 1 -93 -1z m50 -361 c-2
-10 -4 -24 -4 -30 -1 -7 -8 -13 -16 -13 -8 0 -15 -4 -15 -10 0 -5 -7 -10 -16
-10 -11 0 -6 11 18 40 18 22 34 40 35 40 1 0 0 -8 -2 -17z"/>
<path d="M4117 6906 c-31 -96 -31 -96 -13 -96 9 0 21 21 31 55 21 74 37 71 34
-7 -4 -83 15 -88 61 -16 38 60 48 52 26 -21 -12 -42 -12 -50 -1 -55 10 -4 21
18 39 76 14 45 23 85 21 89 -12 19 -46 16 -56 -4 -14 -27 -50 -67 -60 -67 -5
0 -9 25 -11 56 -2 47 -7 58 -24 64 -19 7 -23 0 -47 -74z"/>
<path d="M2242 6898 c-6 -16 -16 -28 -22 -28 -5 0 -11 -15 -11 -32 -1 -18 -3
-25 -6 -15 -6 24 -43 22 -43 -3 0 -11 5 -20 10 -20 6 0 10 -9 10 -21 0 -12 4
-17 11 -13 8 4 10 -20 7 -84 -2 -50 0 -88 4 -86 4 3 8 15 8 27 0 30 37 129 51
138 14 8 23 79 10 79 -6 0 -11 19 -13 43 -4 42 -4 42 -16 15z"/>
<path d="M4502 6843 c-23 -62 -44 -135 -39 -139 3 -3 11 -7 19 -8 7 -1 23 -7
35 -14 12 -7 28 -12 36 -12 20 0 54 31 61 56 8 28 -34 74 -69 74 -23 0 -25 3
-20 23 11 34 11 39 -1 44 -6 2 -16 -9 -22 -24z m78 -78 c16 -19 4 -52 -22 -61
-30 -9 -62 29 -48 57 13 22 52 25 70 4z"/>
<path d="M2048 6823 c-22 -53 -37 -106 -52 -190 l-14 -72 21 14 c12 8 29 15
39 15 10 0 18 7 18 15 0 8 14 29 30 47 34 35 38 55 14 72 -14 11 -14 13 0 25
14 12 16 10 16 -8 0 -14 6 -21 20 -21 17 0 20 7 20 40 0 39 -1 40 -36 40 -29
0 -35 3 -30 16 5 13 -14 44 -27 44 -2 0 -11 -17 -19 -37z"/>
<path d="M4326 6834 c-36 -35 3 -114 57 -114 31 0 67 35 67 65 0 54 -85 88
-124 49z m87 -25 c15 -24 1 -49 -27 -49 -31 0 -48 27 -34 53 11 22 46 19 61
-4z"/>
<path d="M4666 6805 c-6 -17 9 -29 24 -20 14 9 12 22 -4 28 -8 3 -17 -1 -20
-8z"/>
<path d="M4720 6748 c-6 -24 -16 -60 -22 -81 -11 -37 -5 -59 11 -41 8 8 51
141 51 158 0 3 -7 6 -15 6 -8 0 -19 -17 -25 -42z"/>
<path d="M4639 6708 c-14 -60 -14 -61 -1 -66 10 -3 42 78 42 105 0 7 -6 13
-14 13 -9 0 -19 -20 -27 -52z"/>
<path d="M4821 6723 c-6 -21 -17 -59 -25 -85 l-14 -47 95 -32 c52 -17 96 -29
97 -28 8 9 46 135 46 150 0 12 -24 26 -86 48 -47 17 -89 31 -94 31 -5 0 -14
-17 -19 -37z m123 -12 c5 -8 -30 -139 -39 -149 -2 -2 -12 1 -24 7 -19 11 -19
13 -4 58 12 34 13 50 5 63 -6 10 -8 21 -5 24 10 9 61 7 67 -3z"/>
<path d="M1999 6510 c-3 -37 -8 -45 -24 -45 -13 0 -19 -6 -17 -17 1 -9 -2 -19
-8 -23 -5 -3 -10 -24 -10 -46 0 -28 -6 -46 -20 -57 -20 -17 -26 -77 -17 -177
2 -22 5 -56 7 -75 l2 -35 10 35 c6 19 14 44 18 55 9 24 43 168 66 282 13 62
15 90 7 115 l-10 33 -4 -45z"/>
<path d="M4212 6544 c3 -3 2 -20 -2 -39 -5 -23 -4 -33 2 -29 6 4 8 1 6 -7 -3
-8 -10 -13 -16 -12 -10 2 -42 -66 -42 -89 0 -21 18 5 29 42 8 27 10 29 7 7 -9
-71 46 -10 58 64 3 21 11 39 18 39 19 0 3 10 -32 20 -18 5 -30 7 -28 4z"/>
<path d="M6530 6380 c-12 -16 -19 -30 -16 -30 2 0 14 14 26 30 12 17 19 30 16
30 -2 0 -14 -13 -26 -30z"/>
<path d="M4164 6288 c-11 -29 -23 -51 -28 -50 -5 2 -18 -13 -29 -35 -11 -21
-35 -61 -53 -90 -19 -28 -42 -71 -53 -95 -10 -24 -41 -90 -68 -148 -56 -116
-123 -283 -123 -303 0 -7 -6 -19 -12 -25 -10 -10 -10 -15 1 -21 11 -7 11 -10
0 -17 -8 -5 -19 -18 -25 -29 -9 -16 -8 -22 5 -32 13 -10 10 -14 -27 -28 -34
-14 -40 -20 -31 -31 15 -18 29 -18 29 1 0 9 9 15 25 15 14 0 25 -4 25 -10 0
-14 27 -13 53 2 12 7 45 13 72 15 43 2 105 8 126 12 3 1 4 12 2 25 -3 13 0 34
7 46 11 21 10 22 -22 18 l-33 -3 74 220 c58 171 75 235 77 285 1 36 7 87 14
115 6 27 8 65 5 85 -3 20 -2 56 4 80 14 62 7 61 -15 -2z m-164 -823 c-7 -8
-17 -15 -22 -15 -6 0 -5 7 2 15 7 8 17 15 22 15 6 0 5 -7 -2 -15z"/>
<path d="M5166 6239 c-14 -17 -26 -36 -26 -42 0 -7 9 3 20 21 11 18 30 37 43
42 15 6 17 9 5 9 -9 1 -28 -13 -42 -30z"/>
<path d="M5258 6263 c7 -3 16 -2 19 1 4 3 -2 6 -13 5 -11 0 -14 -3 -6 -6z"/>
<path d="M5250 6186 c0 -14 -4 -28 -10 -31 -22 -14 -10 -35 20 -35 28 0 30 3
30 35 0 19 1 38 3 43 1 4 -8 8 -20 10 -19 3 -23 -1 -23 -22z"/>
<path d="M5321 6200 c0 -8 4 -22 9 -30 12 -18 12 -2 0 25 -6 13 -9 15 -9 5z"/>
<path d="M5731 6166 c12 -10 60 -16 54 -6 -3 5 -18 10 -32 10 -15 0 -24 -2
-22 -4z"/>
<path d="M5526 6068 c-13 -18 -22 -36 -19 -41 3 -5 10 -1 16 9 5 11 19 29 30
42 11 12 16 22 9 22 -6 0 -22 -14 -36 -32z"/>
<path d="M1893 6015 c-3 -9 -3 -18 -1 -21 3 -3 8 4 11 16 6 23 -1 27 -10 5z"/>
<path d="M5460 5874 c0 -8 12 -32 26 -52 15 -20 24 -29 21 -20 -3 9 -9 33 -13
52 -6 35 -34 52 -34 20z"/>
<path d="M5648 5853 c6 -2 18 -2 25 0 6 3 1 5 -13 5 -14 0 -19 -2 -12 -5z"/>
<path d="M5050 5681 c-47 -15 -125 -40 -175 -55 -49 -15 -146 -46 -215 -69
-69 -22 -172 -53 -230 -68 -58 -16 -85 -26 -60 -23 148 19 580 147 725 214 77
36 62 36 -45 1z"/>
<path d="M5120 5600 c-9 -6 -10 -10 -3 -10 6 0 15 5 18 10 8 12 4 12 -15 0z"/>
<path d="M5070 5580 c-8 -5 -10 -10 -5 -10 6 0 17 5 25 10 8 5 11 10 5 10 -5
0 -17 -5 -25 -10z"/>
<path d="M1393 5535 c0 -27 2 -38 4 -22 2 15 2 37 0 50 -2 12 -4 0 -4 -28z"/>
<path d="M4952 5542 c-47 -15 -88 -35 -93 -44 -8 -15 -2 -14 38 6 26 13 72 31
101 41 28 9 52 18 52 21 0 6 -9 4 -98 -24z"/>
<path d="M1592 5520 c0 -14 2 -19 5 -12 2 6 2 18 0 25 -3 6 -5 1 -5 -13z"/>
<path d="M1718 5504 c-5 -4 -8 -35 -8 -68 1 -46 3 -57 11 -43 11 19 8 123 -3
111z"/>
<path d="M1154 5491 c-5 -4 -39 -16 -76 -26 l-68 -17 0 -39 c0 -29 8 -47 32
-74 24 -28 93 -75 110 -75 2 0 2 26 0 58 -3 40 3 74 16 110 15 40 17 54 8 61
-7 6 -17 7 -22 2z"/>
<path d="M1588 5450 c-7 -24 -3 -38 8 -28 3 4 4 17 2 30 l-3 23 -7 -25z"/>
<path d="M4560 5434 c-74 -19 -117 -32 -95 -29 22 3 83 10 135 17 91 11 120
20 120 39 0 12 -7 11 -160 -27z"/>
<path d="M4288 5453 c6 -2 18 -2 25 0 6 3 1 5 -13 5 -14 0 -19 -2 -12 -5z"/>
<path d="M4233 5443 c9 -2 23 -2 30 0 6 3 -1 5 -18 5 -16 0 -22 -2 -12 -5z"/>
<path d="M4173 5433 c9 -2 23 -2 30 0 6 3 -1 5 -18 5 -16 0 -22 -2 -12 -5z"/>
<path d="M4771 5424 c0 -11 3 -14 6 -6 3 7 2 16 -1 19 -3 4 -6 -2 -5 -13z"/>
<path d="M2622 5391 c-8 -5 -12 -16 -10 -25 2 -12 6 -10 15 9 6 14 10 25 10
25 -1 0 -8 -4 -15 -9z"/>
<path d="M2667 5380 c3 -11 7 -20 8 -20 1 0 5 9 8 20 3 12 0 20 -8 20 -8 0
-11 -8 -8 -20z"/>
<path d="M4388 5393 c6 -2 18 -2 25 0 6 3 1 5 -13 5 -14 0 -19 -2 -12 -5z"/>
<path d="M2567 5375 c-4 -8 -2 -17 3 -20 6 -4 10 -4 10 -1 0 2 3 11 6 20 3 9
2 16 -4 16 -5 0 -12 -7 -15 -15z"/>
<path d="M2732 5365 c0 -16 2 -22 5 -12 2 9 2 23 0 30 -3 6 -5 -1 -5 -18z"/>
<path d="M3591 5381 c-8 -6 -9 -11 -3 -15 6 -3 14 -1 17 5 9 14 2 20 -14 10z"/>
<path d="M4338 5383 c7 -3 16 -2 19 1 4 3 -2 6 -13 5 -11 0 -14 -3 -6 -6z"/>
<path d="M4830 5363 c0 -17 -3 -39 -7 -48 -11 -29 134 -16 225 20 79 32 82 47
4 21 -88 -30 -115 -33 -132 -17 -14 15 -14 18 5 33 19 17 19 17 -12 3 -23 -12
-30 -20 -26 -35 4 -14 0 -20 -11 -20 -9 0 -16 8 -16 18 0 10 -7 27 -15 38 -14
18 -14 17 -15 -13z"/>
<path d="M2700 5369 c0 -5 5 -7 10 -4 6 3 10 8 10 11 0 2 -4 4 -10 4 -5 0 -10
-5 -10 -11z"/>
<path d="M4278 5373 c7 -3 16 -2 19 1 4 3 -2 6 -13 5 -11 0 -14 -3 -6 -6z"/>
<path d="M2773 5363 c9 -2 25 -2 35 0 9 3 1 5 -18 5 -19 0 -27 -2 -17 -5z"/>
<path d="M4759 5335 c-6 -40 -4 -53 7 -43 3 3 4 23 2 44 l-3 39 -6 -40z"/>
<path d="M1216 5338 c-9 -35 -7 -76 4 -83 6 -4 10 15 10 49 0 60 -4 70 -14 34z"/>
<path d="M4600 5322 c-41 -19 -91 -39 -110 -43 -19 -4 17 -5 80 -2 63 3 118 7
123 10 13 7 8 73 -5 72 -7 0 -47 -17 -88 -37z m60 -12 c0 -5 -10 -10 -22 -10
-13 0 -34 -2 -48 -5 -14 -3 -7 2 15 9 50 18 55 18 55 6z"/>
<path d="M2191 5310 c13 -22 30 -40 38 -40 9 0 57 -4 106 -9 50 -6 135 -13
190 -16 l100 -7 -35 26 c-19 15 -40 32 -45 40 -9 11 -273 46 -353 46 l-23 0
22 -40z"/>
<path d="M2695 5320 c-3 -5 -1 -10 4 -10 6 0 11 5 11 10 0 6 -2 10 -4 10 -3 0
-8 -4 -11 -10z"/>
<path d="M3980 5295 c10 -12 16 -13 29 -3 9 7 18 14 20 15 2 2 -10 3 -29 3
-28 0 -31 -2 -20 -15z"/>
<path d="M2768 5293 c6 -2 18 -2 25 0 6 3 1 5 -13 5 -14 0 -19 -2 -12 -5z"/>
<path d="M3651 5291 c-28 -18 34 -24 66 -7 l28 15 -40 0 c-22 1 -47 -3 -54 -8z"/>
<path d="M3810 5283 c0 -9 8 -13 22 -11 31 4 34 26 3 26 -15 0 -25 -6 -25 -15z"/>
<path d="M2715 5261 l-40 -18 27 -6 c26 -7 68 15 68 35 0 12 -10 10 -55 -11z"/>
<path d="M3920 5265 c0 -8 4 -15 10 -15 5 0 7 7 4 15 -4 8 -8 15 -10 15 -2 0
-4 -7 -4 -15z"/>
<path d="M4373 5263 c15 -2 37 -2 50 0 12 2 0 4 -28 4 -27 0 -38 -2 -22 -4z"/>
<path d="M1696 5228 c-19 -26 -20 -61 -5 -90 11 -21 12 -21 25 -3 16 21 19
101 5 110 -5 3 -17 -5 -25 -17z"/>
<path d="M3745 5240 c-3 -5 3 -10 15 -10 12 0 18 5 15 10 -3 6 -10 10 -15 10
-5 0 -12 -4 -15 -10z"/>
<path d="M3598 5233 c7 -3 16 -2 19 1 4 3 -2 6 -13 5 -11 0 -14 -3 -6 -6z"/>
<path d="M1750 5208 c0 -22 17 -41 29 -34 16 10 13 33 -5 40 -22 8 -24 8 -24
-6z"/>
<path d="M1320 5156 c0 -20 -42 -206 -51 -221 -5 -12 -9 -47 -7 -80 3 -54 5
-59 31 -66 25 -7 27 -5 27 22 0 19 4 28 11 24 6 -4 5 2 -3 14 -7 12 -18 21
-25 21 -20 0 -15 37 21 162 27 97 31 118 19 122 -17 7 -23 7 -23 2z"/>
<path d="M1746 5102 c-2 -4 -1 -14 5 -22 7 -12 9 -10 9 8 0 23 -5 28 -14 14z"/>
<path d="M1527 5015 c-49 -36 -92 -65 -98 -65 -5 0 -9 -6 -8 -12 1 -19 17 -55
18 -40 1 17 21 15 21 -3 0 -10 -10 -15 -27 -15 -35 0 -58 14 -49 29 4 6 3 11
-3 11 -6 0 -15 -9 -21 -20 -9 -16 -8 -19 7 -13 12 5 15 2 10 -10 -6 -15 0 -17
43 -13 28 3 50 2 50 -2 0 -13 -44 -35 -48 -24 -4 14 -42 3 -42 -13 0 -15 22
-25 56 -25 13 0 24 -5 24 -11 0 -5 5 -7 11 -3 6 3 9 14 6 24 -3 12 0 17 8 14
7 -3 22 8 34 24 24 35 26 43 7 36 -7 -3 -16 2 -19 10 -5 13 1 16 27 16 30 0
38 6 76 64 42 65 48 98 19 104 -8 1 -54 -27 -102 -63z"/>
<path d="M1683 5046 c3 -8 -10 -38 -28 -68 -41 -63 -42 -68 -11 -68 18 0 33
15 66 65 24 36 41 67 39 69 -2 2 -19 6 -38 10 -26 5 -32 3 -28 -8z"/>
<path d="M1777 4938 l-47 -73 25 -20 c28 -23 30 -36 14 -67 -10 -19 -12 -19
-39 12 l-28 31 -21 -30 c-20 -28 -20 -30 -4 -36 10 -3 29 -15 43 -26 21 -18
23 -22 9 -32 -8 -7 -27 -29 -43 -49 l-28 -37 24 -6 c95 -21 132 -27 200 -31
l77 -4 -16 38 c-18 44 -19 87 -2 119 10 19 10 25 -3 36 -8 6 -25 39 -37 72
-13 33 -29 76 -36 95 -8 19 -17 45 -20 58 -4 12 -10 22 -14 22 -4 0 -28 -33
-54 -72z"/>
<path d="M3118 4953 c7 -3 16 -2 19 1 4 3 -2 6 -13 5 -11 0 -14 -3 -6 -6z"/>
<path d="M1880 4930 c0 -5 7 -10 15 -10 8 0 15 5 15 10 0 6 -7 10 -15 10 -8 0
-15 -4 -15 -10z"/>
<path d="M7775 4881 c-24 -22 -281 -175 -310 -184 -23 -7 -115 -22 -222 -37
-111 -14 -155 -38 -200 -107 -21 -32 -41 -60 -46 -61 -4 -2 -5 -7 -2 -11 2 -5
-23 -59 -56 -122 -33 -63 -137 -266 -230 -451 -105 -209 -176 -338 -185 -338
-8 0 -14 4 -14 10 0 9 302 609 377 749 19 35 32 65 30 67 -2 2 -59 -33 -128
-77 -254 -164 -496 -312 -558 -341 -113 -51 -1078 -419 -1431 -545 -283 -101
-454 -156 -605 -194 -193 -49 -571 -155 -750 -211 -288 -90 -386 -103 -444
-61 -106 79 -631 812 -631 883 0 5 15 10 34 10 63 0 72 48 19 105 -16 17 -53
59 -83 94 -83 97 -81 96 -120 93 -40 -3 -37 -8 -110 135 -28 54 -70 119 -93
145 l-42 47 -105 16 c-202 31 -224 38 -230 65 -5 24 -21 32 -65 31 -11 -1 -30
-1 -41 -1 -12 0 -37 -15 -57 -34 -59 -55 -265 -111 -341 -92 -30 7 -66 59 -66
93 0 12 14 38 30 56 32 37 42 97 16 97 -37 0 -171 -212 -228 -359 -48 -126 22
-708 127 -1053 19 -63 36 -139 39 -169 7 -80 86 -299 127 -352 69 -91 156
-130 394 -176 227 -44 293 -53 439 -58 150 -5 180 -1 171 27 -10 31 44 47 275
79 303 43 751 145 1250 286 340 96 585 162 685 185 50 11 162 38 250 60 283
69 377 81 1377 175 553 52 745 91 971 195 96 44 132 87 185 226 10 27 47 85
83 130 35 44 72 95 81 112 9 18 33 39 52 49 39 18 51 49 15 38 -20 -7 -20 -4
-14 49 4 31 4 56 1 56 -4 0 -21 -30 -39 -67 -22 -47 -42 -72 -64 -84 -18 -10
-33 -16 -33 -12 0 4 -12 -4 -26 -18 l-27 -24 7 56 c3 31 18 90 32 130 14 41
26 83 27 94 0 11 10 34 23 51 13 17 26 43 30 58 6 26 3 25 -62 -24 -108 -81
-244 -209 -279 -265 -17 -27 -82 -149 -144 -270 -62 -121 -117 -224 -122 -229
-27 -28 -1 37 70 175 269 528 267 524 391 586 47 23 101 49 120 57 42 17 65
41 117 118 49 73 190 217 220 224 32 8 53 -12 53 -52 0 -19 4 -34 10 -34 10 0
91 153 104 198 9 27 -3 28 -29 3z m-6449 -673 c90 -29 164 -55 164 -58 -1 -3
-23 -30 -51 -60 l-50 -55 -127 44 c-70 24 -137 47 -150 52 l-23 9 33 60 c18
33 34 60 37 60 2 0 77 -24 167 -52z m5827 -40 c-36 -51 -94 -122 -128 -158
-49 -52 -75 -92 -126 -195 -71 -146 -100 -198 -106 -192 -2 3 41 96 97 208
l100 204 112 113 c61 61 113 112 114 112 2 0 -26 -42 -63 -92z m-5589 -60 c14
-89 120 -380 195 -532 l76 -156 -62 0 c-73 0 -79 5 -118 92 l-30 65 -94 16
c-51 9 -95 18 -98 21 -3 2 10 32 29 66 32 59 34 61 66 55 17 -3 32 -5 32 -3 0
2 -13 38 -29 82 l-28 79 -62 -104 c-34 -57 -81 -143 -104 -191 -23 -48 -48
-87 -54 -87 -35 -2 -303 126 -303 144 0 13 41 175 50 200 10 26 8 31 -11 46
-22 16 -22 16 -4 65 10 27 22 53 25 57 4 5 34 -5 66 -21 33 -16 88 -40 124
-52 36 -13 67 -25 69 -26 1 -2 -14 -30 -34 -63 -40 -65 -32 -63 -116 -27 l-36
15 -21 -45 c-12 -24 -22 -50 -22 -58 0 -7 30 -26 68 -41 37 -15 71 -32 77 -37
5 -4 12 -8 16 -8 8 0 100 159 112 192 12 33 200 308 207 303 4 -3 10 -24 14
-47z m4616 -230 c-16 -17 -20 -31 -16 -52 5 -25 3 -28 -14 -23 -11 3 -23 -1
-28 -7 -10 -17 -50 -38 -61 -32 -5 3 -19 -3 -31 -14 -31 -27 -57 -27 -52 0 2
10 -2 8 -9 -4 -8 -13 -13 -15 -19 -6 -5 8 -10 3 -14 -14 -11 -45 -29 -31 -21
17 8 50 19 64 37 49 11 -8 17 -6 26 9 7 10 18 19 26 19 11 0 12 -8 6 -36 -10
-43 -6 -40 23 17 27 53 43 59 52 19 6 -26 9 -29 22 -19 10 9 13 23 9 42 -5 23
-3 28 11 25 10 -2 26 5 35 14 26 26 42 22 18 -4z m-5156 -317 c20 -22 36 -98
18 -87 -7 4 -12 16 -12 26 0 10 -4 22 -10 25 -6 4 -10 -6 -10 -24 0 -16 5 -33
10 -36 31 -19 67 -185 41 -185 -18 0 -51 62 -50 95 l1 30 11 -32 c17 -45 31
-54 24 -15 -4 18 -17 46 -29 62 -16 22 -23 49 -26 95 -5 68 3 78 32 46z m116
-81 c12 -23 22 -118 14 -143 -4 -13 -12 -15 -30 -11 -26 7 -27 2 -7 -70 3 -12
1 -17 -8 -14 -16 5 -24 49 -34 191 l-8 99 31 -16 c17 -9 36 -25 42 -36z m134
-59 c17 -33 32 -246 18 -255 -21 -13 -74 17 -88 49 -19 47 -30 220 -15 239 17
21 68 1 85 -33z m136 -11 c14 -3 31 -17 37 -31 15 -29 17 -121 2 -136 -7 -7
-2 -27 16 -68 14 -32 23 -60 21 -62 -13 -13 -46 23 -63 69 -12 30 -27 54 -37
56 -14 3 -16 -4 -10 -52 7 -59 -7 -78 -26 -33 -9 21 -30 200 -30 252 0 26 9
26 90 5z m228 -25 c6 -3 12 -16 12 -29 0 -23 -3 -25 -32 -19 l-31 6 6 -69 c4
-38 10 -93 14 -122 6 -52 5 -54 -18 -50 -23 3 -25 9 -36 112 -14 132 -16 136
-48 136 -20 0 -25 5 -25 26 l0 25 73 -6 c39 -4 78 -8 85 -10z m189 -27 c28
-26 31 -68 5 -68 -9 0 -23 9 -30 20 -16 26 -88 30 -78 4 3 -9 6 -22 6 -29 0
-10 17 -17 50 -21 60 -8 81 -29 90 -89 10 -64 -7 -85 -69 -85 -56 0 -96 25
-104 66 -7 37 21 44 45 11 13 -18 29 -27 47 -27 36 0 40 6 32 38 -6 23 -15 28
-60 35 -59 10 -79 31 -82 87 -4 68 6 80 69 80 43 0 61 -5 79 -22z"/>
<path d="M1094 3428 c8 -46 13 -58 27 -58 13 0 11 74 -3 88 -22 22 -31 12 -24
-30z"/>
<path d="M1213 3323 c4 -68 9 -90 23 -100 10 -7 21 -13 26 -13 11 0 -2 172
-15 188 -5 6 -16 12 -25 12 -12 0 -14 -13 -9 -87z"/>
<path d="M1360 3335 c0 -29 5 -37 26 -45 35 -14 34 -15 34 29 0 26 -5 41 -16
45 -34 13 -44 7 -44 -29z"/>
<path d="M1056 4714 c-68 -45 -166 -139 -166 -158 0 -6 28 18 63 52 57 57 129
113 142 112 14 -2 37 18 34 29 -2 6 -32 -8 -73 -35z"/>
<path d="M1677 4703 c-4 -3 -7 -11 -7 -17 0 -6 5 -5 12 2 6 6 9 14 7 17 -3 3
-9 2 -12 -2z"/>
<path d="M1581 4666 c-9 -11 -6 -18 16 -34 l29 -20 16 28 c9 16 14 31 10 34
-11 11 -60 6 -71 -8z"/>
<path d="M1339 4597 c14 -18 56 -23 65 -9 3 5 0 9 -7 10 -7 1 -25 4 -42 8 -27
7 -29 6 -16 -9z"/>
<path d="M7645 4590 c-3 -5 3 -10 14 -10 12 0 21 5 21 10 0 6 -6 10 -14 10 -8
0 -18 -4 -21 -10z"/>
<path d="M7588 4405 c-16 -35 -6 -39 36 -14 39 23 39 39 0 39 -16 0 -28 -8
-36 -25z"/>
<path d="M7680 4318 l-24 -43 32 34 c31 33 40 51 24 51 -5 0 -19 -19 -32 -42z"/>
<path d="M7492 4250 c-18 -28 -32 -58 -30 -67 3 -17 85 -53 119 -53 24 0 119
121 119 150 -1 10 -11 4 -28 -16 -44 -51 -68 -59 -108 -38 -24 13 -34 26 -36
46 -3 28 -4 28 -36 -22z"/>
<path d="M6305 4060 c-3 -5 -2 -10 4 -10 5 0 13 5 16 10 3 6 2 10 -4 10 -5 0
-13 -4 -16 -10z"/>
<path d="M3863 3512 c-66 -20 -83 -29 -83 -44 0 -16 5 -18 34 -12 38 7 38 7
67 -123 11 -47 15 -53 33 -47 12 4 22 8 24 9 2 2 -6 39 -17 83 -12 44 -21 85
-21 90 0 6 14 15 30 21 28 9 40 34 23 44 -5 2 -45 -8 -90 -21z"/>
<path d="M3688 3523 c-23 -6 -23 -4 8 -129 25 -97 28 -104 48 -98 11 4 22 7
23 8 4 3 -50 211 -56 217 -3 3 -14 4 -23 2z"/>
<path d="M3517 3415 c-27 -7 -51 -15 -53 -18 -5 -5 43 -207 51 -215 10 -10
114 20 139 39 35 28 34 99 -1 99 -10 0 -13 6 -8 18 19 50 -5 93 -53 91 -15 0
-49 -7 -75 -14z m83 -41 c18 -20 -3 -42 -45 -46 -26 -3 -30 1 -33 24 -3 21 2
27 20 31 41 8 45 7 58 -9z m25 -104 c0 -19 -7 -26 -33 -34 -26 -7 -36 -6 -43
5 -14 22 -6 43 21 50 40 11 55 6 55 -21z"/>
<path d="M3383 3382 c-7 -4 -15 -27 -19 -50 -4 -23 -10 -45 -15 -47 -4 -3 -22
12 -39 33 -24 31 -36 38 -55 34 -14 -2 -25 -7 -25 -11 0 -4 24 -31 54 -60 40
-39 57 -66 65 -98 10 -38 15 -44 34 -41 12 2 21 9 19 17 -14 65 -12 103 6 164
18 61 19 67 4 67 -10 0 -22 -4 -29 -8z"/>
<path d="M3100 3318 c-73 -15 -70 -11 -54 -75 36 -142 44 -163 62 -163 32 0
121 30 137 46 23 23 18 60 -10 82 -15 12 -21 23 -15 27 17 10 11 54 -10 75
-22 22 -40 23 -110 8z m68 -37 c24 -15 9 -44 -27 -53 -38 -10 -40 -10 -43 22
-2 18 3 25 22 31 34 10 33 10 48 0z m40 -113 c3 -18 -19 -34 -57 -39 -19 -3
-26 2 -32 23 -8 32 1 38 51 35 24 -1 36 -7 38 -19z"/>
</g>
</svg>
